<svg xmlns="http://www.w3.org/2000/svg" xmlns:xlink="http://www.w3.org/1999/xlink" version="1.1" x="0px" y="0px" viewBox="0 0 95 118.75" style="enable-background:new 0 0 95 95;" xml:space="preserve"><style type="text/css">
	.st0{clip-path:url(#d);}
	.st1{clip-path:url(#c);}
</style><g><g><defs><rect id="b" x="-1" y="1" width="100" height="100"/></defs><clipPath id="d"><use xlink:href="#b" style="" overflow="visible"/></clipPath><g class="st0"><defs><rect id="a" x="-1" y="1" width="100" height="100"/></defs><clipPath id="c"><use xlink:href="#a" style="" overflow="visible"/></clipPath><path class="st1" d="M76.4,49.4c0.3-1.7,0.5-3.4,0.6-5.2c0.1-0.9,0.1-1.8,0.1-2.8c0-0.7,0-1.5-0.3-2.2c0.3-0.9-1-1.7-1.6-0.8     c-1.3,1.8-2.6,3.6-4.2,5.2c-0.8,0.8-1.6,1.5-2.5,2.2c-0.5,0.3-1,0.7-1.4,1c-1.6-2.3-3.5-4.4-5.4-6.4c-2-2-4.1-3.9-6.1-5.9     c-1.8-1.8-3.3-3.7-5-5.7c-0.4-0.5-0.8-0.9-1.2-1.4c-1-1.2-2-2.4-2.9-3.6c-1.3-1.6-2.7-3.3-4-4.9c-1.3-1.5-2.6-3-4.1-4.3     c-0.6-0.6-1.3-1.2-2-1.7c-0.5-0.4-1-0.7-1.6-1c-0.1-0.1-0.2-0.2-0.3-0.3c-0.2-0.2-0.4,0.1-0.4,0.3c0,0-0.1,0.1-0.1,0.1     c-0.9,0.4-1.6,1.2-2.3,1.8c-0.8,0.7-1.6,1.3-2.4,2c-1.6,1.4-3.2,2.9-4.7,4.4c-1.3,1.4-2.6,2.7-3.8,4.3c-1,1.3-1.8,2.8-3.2,3.8     c-0.3,0.2-0.3,0.5-0.2,0.7c-0.1,0.1-0.1,0.3,0,0.4c0.1,0.2,0.2,0.3,0.3,0.4c-0.1,0.1-0.2,0.2-0.2,0.4c0,0.3,0.1,0.5,0.1,0.8     c-0.3,0.2-0.2,0.7,0,1c0,0.1,0.1,0.1,0.1,0.1c0.1,1,0.3,2,0.4,3c0.2,1.6,0.4,3.2,1,4.8c0.1,0.2,0.3,0.2,0.5,0     c1.1,1.4,2.3,2.7,3.6,4.1c3.6,3.8,7,7.8,10.3,11.8c3.1,3.7,6.1,7.5,9,11.4c-0.2,0.2-0.4,0.3-0.6,0.5c-1.1,0.8-2.1,1.6-3.2,2.4     c-0.4,0.3-1.2,0.7-1.5,1.2c-0.1,0.1-0.2,0.1-0.3,0.2c-0.4,0.3-0.6,0.9-0.4,1.4c0,0,0,0,0,0c-0.3,0.6-0.6,1.2-0.9,1.8     c-0.2,0.4-0.4,0.9-0.6,1.3c-0.2,0.4-0.4,0.9-0.4,1.3c0,0.1,0,0.1,0,0.1c-0.2,0.3-0.1,0.6,0.3,0.7c0.6,0.1,1.2,0.2,1.9,0.3     c5.3,0.9,10.6,1.7,15.9,2.5c2.7,0.4,5.3,0.7,8,1c1.3,0.1,2.6,0.2,4,0.3c1.3,0.1,2.6,0.1,4,0c0.2,0,0.4-0.3,0.4-0.5     c0.2,0,0.5-0.1,0.6-0.2c0.5-0.2,1-0.7,1.4-1c0.5-0.4,0.9-0.8,1.3-1.3c0.2-0.2,0.4-0.5,0.7-0.7c0,0,0,0,0,0c0.1,0,0.2-0.1,0.3-0.2     c0.1-0.1,0.2-0.2,0.3-0.3c0.3-0.2,0.5-0.4,0.8-0.6c0.3-0.3,0.9-0.7,1.1-1.2c0.1,0,0.2,0,0.3-0.1c0.4-0.2,0.7-0.6,0.7-1     c0-1-0.1-2-0.1-3c0-0.9,0-1.9,0-2.8c0-2.7,0.1-5.5,0.1-8.2c0-2.7,0-5.4-0.1-8c0-1.3-0.1-2.7,0-4C76.3,49.6,76.3,49.5,76.4,49.4      M19.2,33.7c0,0-0.1,0-0.1,0c0-0.1,0-0.2-0.1-0.3C19.1,33.5,19.2,33.6,19.2,33.7C19.2,33.7,19.2,33.7,19.2,33.7 M19.2,34.7     c0,0,0-0.1,0-0.1c0,0,0.1,0.1,0.1,0.1C19.3,34.6,19.3,34.6,19.2,34.7 M19.6,36.8c0-0.2-0.1-0.4-0.1-0.7c0.1,0.2,0.3,0.3,0.4,0.5     C19.8,36.7,19.7,36.7,19.6,36.8 M19.8,39.9C19.8,39.9,19.8,39.9,19.8,39.9c0-0.7,0-1.3-0.1-2c0.5,1.2,1.3,2.3,2.1,3.3     c0.3,0.5,0.7,0.9,1.1,1.4C21.9,41.6,20.8,40.7,19.8,39.9 M24.6,42.3c-0.8-0.9-1.5-1.8-2.2-2.8c-0.1-0.1-0.2-0.2-0.3-0.4     c0.2,0.2,0.3,0.4,0.5,0.6c0.7,0.9,1.4,1.8,2.2,2.7C24.7,42.4,24.6,42.3,24.6,42.3 M25.5,39.2c-1.2-1.4-2.3-2.8-3.6-4.2     c-0.5-0.6-1-1.2-1.5-1.8c-0.4-0.5-0.8-1-1.2-1.4c-0.2-0.2-0.4-0.4-0.7-0.6c0-0.2-0.1-0.3-0.1-0.5c0,0,0.1,0.1,0.1,0.1     c0.4,0.4,0.7,0.7,1.1,1.1c0.7,0.7,1.4,1.5,2.1,2.2c1.5,1.5,2.9,3,4.4,4.6c0.2,0.2,0.4,0.5,0.6,0.7c0.2,0.4,0.4,0.7,0.6,1.1     c0.8,1.3,1.5,2.6,2.4,3.9c0,0-0.1-0.1-0.1-0.1c-0.8-1-1.5-2.1-2.3-3.1C26.6,40.5,26,39.8,25.5,39.2 M33.1,51.3     c-0.3-0.3-0.6-0.6-0.9-0.9c-0.4-0.7-0.9-1.4-1.3-2.1c-0.8-1.1-1.5-2.2-2.3-3.2c1.5,1.9,3,3.7,4.6,5.4c0.1,0.1,0.2,0.1,0.3,0.1     c0.8,0.9,1.6,1.9,2.5,2.8c0,0,0.1,0.1,0.1,0.1c1.8,2.5,3.7,4.9,5.5,7.3c0,0-0.1-0.1-0.1-0.1c-1-1.2-2-2.4-3.1-3.6     C36.7,55.2,34.9,53.2,33.1,51.3 M46.1,63.9c-0.2,0.2-0.3,0.4-0.5,0.7c-0.8-1.2-1.7-2.4-2.6-3.6c-3-4.1-6.1-8.1-9.1-12.3     c-1.1-1.6-2.2-3.2-3.3-4.8c0.8,0.8,1.5,1.7,2.2,2.5c1.6,1.9,3.1,3.8,4.7,5.8c1.5,2,3,3.9,4.4,6c0.7,1,1.4,2,2,3     c0.3,0.5,0.6,1.1,1,1.6C45.3,63.2,45.7,63.5,46.1,63.9 M45.9,62.2c0.3,0.3,0.5,0.5,0.8,0.8c0,0.1-0.1,0.1-0.1,0.2     c-0.1,0.2-0.2,0.3-0.2,0.4c-0.1-0.4-0.2-0.8-0.4-1.2C46,62.3,45.9,62.3,45.9,62.2 M43.5,63.4c-0.1-0.1-0.1-0.2-0.2-0.3     c0.6,0.7,1.1,1.4,1.7,2.1c0,0,0,0,0,0c-0.2,0.2-0.4,0.4-0.6,0.6c0-0.1,0-0.2-0.1-0.3c-0.1-0.3-0.2-0.6-0.4-0.9     c-0.1-0.1-0.2-0.3-0.3-0.4C43.7,64,43.7,63.7,43.5,63.4 M41.5,63.7c0.2,0.2,0.4,0.4,0.6,0.6c0.4,0.4,0.7,0.8,1.1,1.2     c0.2,0.2,0.4,0.5,0.6,0.7c-0.1,0.1-0.2,0.1-0.2,0.2C42.9,65.6,42.2,64.7,41.5,63.7 M35.6,77.6C35.6,77.6,35.6,77.6,35.6,77.6     c0.3,0,0.6,0.1,0.9,0.1C36.2,77.7,35.9,77.7,35.6,77.6 M36.5,75.5c0.3-0.6,0.5-1.3,0.8-1.9c0.4,0,0.9,0,1.3-0.1     c0.1,0.1,0.2,0.2,0.4,0.2c-0.5,0.1-1.1,0.2-1.6,0.3c-0.5,0.2-0.9,1.2-0.1,1.3c0.2,0,0.4,0.1,0.6,0.1C37.4,75.4,37,75.4,36.5,75.5      M68.4,81.6c-0.1,0.1-0.1,0.2-0.2,0.3c-0.4-0.1-0.8-0.1-1.2-0.2c-1.3-0.2-2.6-0.2-3.9-0.3c-1.3-0.1-2.7-0.3-4-0.4     c-2.7-0.3-5.3-0.7-8-1.1c-2.7-0.4-5.3-0.8-8-1.2c-1.3-0.2-2.6-0.4-4-0.6c-0.4-0.1-0.8-0.1-1.2-0.2c1.3,0.1,2.7,0.2,4,0.3     c2.1,0.2,4.2,0.3,6.4,0.6c2.2,0.2,4.4,0.5,6.5,0.9c0.5,0.1,1.1,0.2,1.6,0.3c0.5,0.1,1.1,0.1,1.6,0.2c1,0.1,2,0.4,3,0.4     c0.1,0,0.1,0,0.2,0l1.1,0.2c1.2,0.2,2.5,0.4,3.7,0.5c0.3,0,0.3,0,0.6,0.1c0.3,0,0.6,0.1,0.9,0.1c0.3,0,0.5,0.1,0.8,0.1     C68.4,81.5,68.4,81.6,68.4,81.6 M40.9,75.6c1,0,2.1,0,3.1,0.1c2.3,0.2,4.7,0.5,7,0.8c0.8,0.1,1.5,0.2,2.3,0.4     c-1.9-0.2-3.8-0.4-5.7-0.7c-1.4-0.2-2.7-0.3-4.1-0.4c-0.6-0.1-1.3-0.1-2-0.2C41.3,75.6,41.1,75.6,40.9,75.6 M69.4,80.1     c-0.1,0.1-0.2,0.2-0.2,0.3c-0.1,0-0.2-0.1-0.2,0c-0.2,0-0.4-0.1-0.7-0.1c-0.5-0.1-1-0.2-1.5-0.3c-1.6-0.3-3.2-0.5-4.8-0.8     c2.7,0,5.4,0,8.2,0.1C69.9,79.6,69.6,79.8,69.4,80.1 M75.3,43.7c-0.3,2.6-0.6,5.2-0.6,7.8c0,2.7,0,5.4-0.1,8     c0,2.7-0.1,5.4-0.2,8.2c0,1.4-0.1,2.8-0.1,4.1c0,1.2-0.1,2.4,0.1,3.5c-0.2,0-0.3,0.1-0.5,0.1c0.1,0-0.2,0-0.3,0.1     c-0.6,0.1-1.3,0.2-1.9,0.2c-1.3,0-2.9-0.2-4.3-0.4c-1.9-0.3-3.8-0.7-5.6-1c-2.1-0.4-4.3-0.6-6.4-0.8c-5.2-0.4-10.5-0.9-15.7-1.7     c1.5-1.2,3-2.3,4.5-3.6c0.9-0.8,1.9-1.7,2.6-2.7c0.6-0.8,1.4-1.9,1.5-2.9c0-0.4-0.3-0.6-0.6-0.6c0,0,0,0,0-0.1c0,0,0-0.1-0.1-0.1     c-0.1-0.2-0.2-0.4-0.3-0.6c0-0.2,0-0.4-0.2-0.6c-0.7-0.7-1.4-1.5-2-2.3c-0.6-0.8-1.2-1.6-1.9-2.4c-1.3-1.6-2.7-3.2-4-4.8     c-0.6-0.7-1.2-1.5-1.9-2.2c-0.6-0.2-1.1-0.8-1.2-1.4c-2.3-2.7-4.7-5.4-7.1-8c-0.9-1-1.8-1.9-2.8-2.9c-0.8-0.9-1.5-1.7-2.3-2.5     c-0.8-0.9-1.6-1.8-2.5-2.6c-0.1-0.1-0.3-0.1-0.4,0c-0.1-0.1-0.1-0.1-0.2-0.2c-0.5-0.4-1-0.9-1.5-1.3c-0.3-0.3-0.7-0.6-1-0.8     c1.4-0.9,2.5-2.2,3.4-3.5c1.1-1.6,2.4-3,3.7-4.3c1.5-1.5,3-3.1,4.5-4.5c0.8-0.7,1.6-1.5,2.4-2.2c0.7-0.6,1.4-1.1,2-1.8     c0.3,0.3,0.6,0.5,0.9,0.8c0.2,0.1,0.3,0.3,0.5,0.4c1.5,1.7,3,3.4,4.5,5.1c2,2.3,4,4.6,5.9,6.9c1.7,2,3.3,4,5,6.1     c1.5,1.9,3.2,3.7,4.9,5.5c3.3,3.4,6.9,6.6,9.5,10.5c0.1,0.2,0.2,0.3,0.4,0.3c0.1,0.1,0.2,0.1,0.3,0.1c1.1,0,2.2-0.8,3.1-1.4     c1-0.7,1.9-1.5,2.8-2.3c1.2-1.1,2.4-2.4,3.4-3.7C75.5,42.1,75.4,42.9,75.3,43.7"/><path class="st1" d="M49.6,56.4c-2.4-2.6-4.8-5.3-7.1-7.9c-0.3-0.3-0.5-0.6-0.8-0.9c0,0,0-0.1,0-0.2c-0.9-2.7-1.6-5.5-2.1-8.3     c0-0.1-0.2-0.1-0.2,0c0.4,2.7,1,5.4,1.8,8c-0.9-1-1.8-2.1-2.7-3.1c-0.1-0.3-0.2-0.7-0.2-1c-0.2-1-0.5-2.1-0.7-3.1     c-0.5-2-1.1-4-1.8-5.9c0-0.1-0.2-0.1-0.2,0c0.6,1.9,1.2,3.9,1.7,5.8c0.2,1,0.5,2,0.7,3c0.1,0.2,0.1,0.5,0.2,0.7     c-1.6-1.9-3.3-3.7-5-5.5c-3.1-3.2-6.4-6.3-10.2-8.6c-0.1-0.1-0.2,0-0.2,0.1c0,0,0,0,0,0c0.2-1.1,1-2.1,1.7-2.9     c1-1.2,2-2.4,3.1-3.5c1.1-1.1,2.3-2.1,3.5-3.1c0.8-0.7,1.6-1.4,2.4-1.9c0.2-0.2,0.1-0.5-0.2-0.4c-0.2,0.1-0.4,0.2-0.6,0.3     c-1.1,0.6-2,1.5-3,2.3c-1.2,1.1-2.4,2.2-3.5,3.3c-1,1.1-2.1,2.2-2.8,3.5c-0.5,0.8-1,1.8-0.9,2.7c0,0.2,0.2,0.1,0.2-0.1     c0-0.1,0-0.1,0-0.2c0,0,0,0,0.1,0.1c2.8,2.1,5.4,4.3,7.9,6.8c2.7,2.7,5.3,5.5,7.8,8.4c0.2,0.1,0.4,0.2,0.6,0.4     c0.3,0.3,0.5,0.6,0.6,1c0.1,0.2,0.3,0.3,0.4,0.5c3,3.4,5.9,6.8,9.2,9.9C49.5,56.7,49.7,56.5,49.6,56.4"/><path class="st1" d="M47.9,69.4c1.4-1.6,3.1-2.9,4.3-4.6c0.6-0.8,1.1-1.8,1-2.8c-0.1-0.5-0.3-0.9-0.6-1.2c-0.4-0.4-0.7-1-1.1-1.5     c0-0.1,0-0.1,0.1-0.1c0.5,0.4,0.8,1,1.3,1.4c0.4,0.3,0.6,0.7,0.7,1.2c0.2,1-0.3,2.1-0.8,2.9c-1.2,1.9-3,3.4-4.7,4.9     C47.9,69.7,47.7,69.5,47.9,69.4"/><path class="st1" d="M48.4,69.6c0.8-0.1,1.6-0.1,2.5-0.1c2.6,0.1,5.2,0.4,7.8,0.7c2.5,0.3,5,0.7,7.5,1.1c1,0.2,1.9,0.3,2.9,0.5     c0.4,0.1,0.7,0.2,1.1,0.3c-0.7-1.7-1.4-3.4-2.3-5c-1.1-2-2.2-4-3.1-6c-0.1-0.1,0.2-0.3,0.2-0.1c0.9,2.1,2.1,4,3.2,6     c0.9,1.7,1.9,3.4,2.3,5.3c0.1,0,0.1,0,0.2,0c0.2,0,0.1,0.4-0.1,0.4c0,0.2,0.1,0.3,0.1,0.5c0,0.1-0.1,0.2-0.2,0.1     c-0.1-0.2-0.2-0.4-0.2-0.6c-0.5-0.1-1.1-0.1-1.7-0.2c-1.1-0.2-2.2-0.4-3.2-0.5c-2.8-0.4-5.6-0.9-8.4-1.2     c-2.1-0.3-4.2-0.5-6.4-0.7c-0.7,0-1.4-0.1-2.1,0c-0.2,0-0.8,0-0.8,0.2c0,0.1-0.1,0.1-0.1,0C47.6,69.9,48.2,69.7,48.4,69.6"/><path class="st1" d="M71.1,72.7c0.3-0.9,0.3-1.8,0.3-2.8c0-0.9-0.1-1.8,0.1-2.7c0-0.1,0.2-0.2,0.3,0c0-0.3,0-0.6,0-1     c0-0.6-0.1-1.3,0-2c0-0.1,0.1-0.1,0.2,0c0.1,0.6,0,1.2,0,1.8c0,0.7,0,1.3,0,2c0,0,0,0.1,0,0.1c0.1,0.6,0,1.3,0,1.9     c0,1-0.3,1.9-0.7,2.9C71.2,72.9,71,72.9,71.1,72.7"/><path class="st1" d="M66.4,50.9c0.3,0,0.5,0,0.8,0c0.3,0,0.7-0.2,0.9-0.4c0,0,0.1,0,0.1,0.1c-0.4,0.5-1.2,1.1-1.8,0.6     C66.3,51,66.3,50.9,66.4,50.9"/><path class="st1" d="M65.5,64.7c0.6,1.7,1.5,3.1,2.2,4.8c0,0,0,0.1-0.1,0c-0.9-1.5-1.7-3.1-2.3-4.7     C65.3,64.7,65.5,64.6,65.5,64.7"/><path class="st1" d="M62.8,65.4c0.5,0.9,1.1,1.7,1.6,2.6c0.3,0.4,0.5,0.9,0.7,1.3c0.2,0.4,0.5,0.9,0.4,1.4c0,0.1-0.2,0.2-0.2,0.1     c-0.2-0.4-0.3-0.9-0.5-1.3c-0.2-0.5-0.4-0.9-0.7-1.3c-0.5-0.9-1.1-1.7-1.6-2.6C62.5,65.4,62.7,65.3,62.8,65.4"/><path class="st1" d="M58.5,61.7c0.7,1.2,1.3,2.4,1.8,3.6c0.5,1.1,1.1,2.5,1.1,3.7c0,0.1-0.1,0.1-0.2,0c-0.2-0.6-0.3-1.2-0.5-1.7     c-0.2-0.6-0.4-1.3-0.7-1.9c-0.5-1.2-1.1-2.4-1.8-3.6C58.3,61.7,58.5,61.6,58.5,61.7"/><path class="st1" d="M56.5,61.9c0.6,1.1,1.3,2.3,1.8,3.5c0.3,0.6,0.5,1.2,0.7,1.8c0.2,0.6,0.4,1.2,0.4,1.8c0,0.1-0.1,0.1-0.2,0     c-0.2-0.5-0.3-1.1-0.5-1.7c-0.2-0.6-0.4-1.2-0.7-1.8c-0.5-1.2-1.2-2.3-1.8-3.5C56.3,61.9,56.5,61.8,56.5,61.9"/><path class="st1" d="M55.3,66.7c0.2,0.3,0.4,0.6,0.6,0.8c0.2,0.2,0.5,0.4,0.6,0.7c0,0.1,0,0.1-0.1,0.1c-0.3-0.2-0.5-0.5-0.7-0.7     c-0.2-0.2-0.4-0.5-0.5-0.8C55.1,66.7,55.2,66.6,55.3,66.7"/><path class="st1" d="M72.4,58.2c0-0.1,0.1-0.1,0.1,0c0.1,1.6,0,3.2-0.2,4.8c0,0.1-0.2,0.1-0.2,0C72.3,61.4,72.2,59.8,72.4,58.2"/><path class="st1" d="M73.4,52.2c-0.1,0.1-0.1,0.3-0.2,0.5c0,0,0-0.1,0-0.1c0-0.7,0-1.4,0-2.1c-0.1-1.4-0.3-2.7-0.5-4.1     c0-0.1-0.1-0.1-0.1,0c0.1,1.3,0,2.5,0.1,3.8c0,0.7,0,1.3,0,2c0,0.7-0.1,1.5,0,2.1c0,0.1,0.2,0.2,0.2,0.1c0.2-0.4,0.2-0.9,0.2-1.3     C73.3,52.7,73.4,52.5,73.4,52.2C73.5,52.2,73.4,52.2,73.4,52.2"/><path class="st1" d="M67.8,60.7c0.6,1.5,1.3,3,1.9,4.6c0.6,1.5,1.2,2.9,1.6,4.5c0,0.1-0.1,0.1-0.1,0.1c-0.6-1.4-1.1-2.9-1.7-4.4     c-0.6-1.5-1.2-3.1-1.9-4.6C67.6,60.7,67.7,60.6,67.8,60.7"/><path class="st1" d="M34.3,18.9c1.6,3.8,3.1,7.5,4.7,11.3c0,0.1-0.1,0.2-0.2,0.1c-1.8-3.6-3.3-7.4-4.8-11.2     C34,18.9,34.2,18.8,34.3,18.9"/><path class="st1" d="M32,19.7c0.3,1.8,1.3,3.3,2,5c0,0.1-0.1,0.2-0.1,0.1c-0.8-1.6-1.8-3.2-2-5C31.8,19.7,32,19.6,32,19.7"/><path class="st1" d="M30.5,21.2c0,1.2,0.3,2.4,0.8,3.5c0,0,0,0.1-0.1,0C30.6,23.7,30.4,22.4,30.5,21.2     C30.4,21.2,30.5,21.2,30.5,21.2"/><path class="st1" d="M40.3,26.3c1.6,3.6,3.5,7.1,4.5,10.9c0,0.1-0.1,0.1-0.1,0c-1.2-3.9-3.2-7.6-4.8-11.4     C40,26,40.1,26.1,40.3,26.3"/><path class="st1" d="M34.2,17.5c1.2,1,2.4,2.1,3.5,3.2c1.2,1.1,2.4,2.1,3.5,3.2c0.1,0.1-0.1,0.2-0.1,0.1c-1.2-1-2.3-2-3.5-3.1     C36.4,19.9,35.2,18.8,34.2,17.5C34.1,17.5,34.2,17.4,34.2,17.5"/><path class="st1" d="M62.2,48.7c-1.5-1.7-3.1-3.3-4.6-5c-1.5-1.8-2.8-3.6-4.2-5.4c-2.7-3.7-5.3-7.5-8.3-10.9     c-1.2-1.4-2.5-2.6-3.9-3.8c0,0-0.1,0-0.1,0.1c1.6,1.6,3.1,3.3,4.5,5.1c1.5,1.8,2.8,3.6,4.2,5.4c2.7,3.7,5.3,7.4,8.3,10.9     c1.2,1.4,2.4,2.8,3.9,3.9C62.2,48.9,62.2,48.8,62.2,48.7"/><path class="st1" d="M72.4,46.5c-0.4,0.2-0.8,0.5-1.2,0.8c-0.4,0.3-0.8,0.7-1.2,1c-0.8,0.7-1.6,1.5-2.4,2.2     c-0.1,0.1,0.1,0.2,0.1,0.1c0.8-0.7,1.6-1.4,2.3-2c0.4-0.3,0.8-0.7,1.2-1C71.7,47.3,72.2,47,72.4,46.5     C72.5,46.5,72.5,46.5,72.4,46.5"/><path class="st1" d="M25.9,29.5c-0.1-0.6-0.3-1.1-0.3-1.7c-0.1-0.6-0.1-1.2-0.2-1.8c0-0.1-0.2-0.1-0.2,0     c-0.1,1.1-0.3,2.6,0.5,3.6C25.7,29.7,25.9,29.6,25.9,29.5"/><path class="st1" d="M27.5,28.2c-0.3-0.9-0.5-1.8-0.5-2.7c0-0.1-0.1-0.1-0.1,0C26.9,26.4,27.1,27.4,27.5,28.2     C27.5,28.3,27.5,28.3,27.5,28.2"/></g></g></g><text x="0" y="110" fill="#000000" font-size="5px" font-weight="bold" font-family="'Helvetica Neue', Helvetica, Arial-Unicode, Arial, Sans-serif">Created by Marcel Dornis</text><text x="0" y="115" fill="#000000" font-size="5px" font-weight="bold" font-family="'Helvetica Neue', Helvetica, Arial-Unicode, Arial, Sans-serif">from the Noun Project</text></svg>