<svg id=plantParenthood data-name="plantParenthood" xmlns="http://www.w3.org/2000/svg" viewBox="0 0 714.9 140.61"><title>Plant Parenthood</title>
<defs>

<clipPath id="clip-p-1">
<path d="M17.81,145.31c-.8.4-1.45.32-1.85-.49a18.84,18.84,0,0,1,.8-2.5c.73-1.37,1.62-2.58,2.42-3.87,5.57-9.59,11.13-19.26,16.77-28.77,1.77-3.07,3.95-5.81,5.88-8.71l3.07-5.08c-2.82-.24-4.84-1.61-6.85-3.14-2.58-1.86-3.23-4-2.42-7.1a17.22,17.22,0,0,1,3.3-6.12A103.13,103.13,0,0,1,68.44,53.65a8.19,8.19,0,0,0,3-3l11.29-17.9c1.29-2,2.74-4,4.19-6.13,1.69,1.46,3.54,2.18,3.46,4.76L80.77,46.72a96.63,96.63,0,0,1,19.35-4c1.13,1.29-.49,1.69-.65,2.74h3.15a3.32,3.32,0,0,1-1.05,4c-3.23.64-6.45,1.29-9.76,1.85a31.23,31.23,0,0,0-8.22,2.5c-2.5,1.13-5,2.26-7.49,3.31a9,9,0,0,0-4.28,3.86c-4.67,7.82-9.35,15.56-14.1,23.38-.81,1.29-1.54,2.66-2.5,4.27,3.46-.08,6.28-1.53,9.83-2.17-.64-.32-1-.41-1.29-.57C69.08,83.88,74.32,82,79.4,80s9.84-4.43,14.83-6.29a31.75,31.75,0,0,0,7.18-4c2.74-1.85,5.72-3.3,8.54-5.08a103.46,103.46,0,0,0,23.62-19.1,41,41,0,0,0,6.61-9.92,17,17,0,0,0,1.53-9.75c-.56-3.31-2.17-5.73-5.4-6.93a28.9,28.9,0,0,0-9.27-2c-3.87-.08-7.74.16-11.61.16-2.25,0-4.43.73-6.77.32-1-.16-2.17.41-3.22.73-7.58,2.18-15.16,4.27-22.73,6.53-2.58.81-5,2-7.58,3.06a5.71,5.71,0,0,1-2.66.24c1-.48,1.93-1,3.06-1.45a8.77,8.77,0,0,1-1.21-.56c-5.08,2.82-10,5.64-15.07,8.38C56.18,36,53,37.45,49.82,39.14a42.39,42.39,0,0,0-8,5c-1.61,1.29-3.38,2.25-5.07,3.38-4.11,2.74-8.39,5.16-12.26,8.23A65.51,65.51,0,0,0,13.94,66.31a42.11,42.11,0,0,0-2.82,4.35c-.4.64-1,1.61-.72,2.26.4,1-.73,1-.57,1.85A7.09,7.09,0,0,0,11,78.4c.56.64,1.45,1,1,2.09-.08.08.08.25.16.33.4.56,1.05,1,1.05,1.61s-.41,1.21-.81,1.93L10,82.19c-.56.24-1.21.48-1.85.8-.24-.16-.57-.32-.89-.56a8,8,0,0,1-3-8.87c1.21-5.08,4-9.27,7.25-13.22a29.14,29.14,0,0,1,7-6.69,38.38,38.38,0,0,0,4.59-3.47c1.29-1.21,2.26-2.82,3.79-3.87,2.18-1.53,4.11-3.22,6.37-4.75A146.57,146.57,0,0,1,57.55,27.93c2.91-1.2,5.81-2.66,8.63-3.95.65-.24,1.29-.88,2.1-.08.08.08.64-.16,1-.24.81-.32,1.7-.64,2.58-.89,2.34-.64,4.76-1,7.1-1.85a78.9,78.9,0,0,0,8.86-4c-3.3.32-6.36,1.86-9.67,2.18a125.83,125.83,0,0,1,17.57-5.81c.65.25,1.13.73,1.54.65a44.4,44.4,0,0,0,7.9-2.18c5-2.09,10.15-2.09,15.31-2.42a25.78,25.78,0,0,1,13,2.34c1.61.81,3.47,1.21,5.16,1.86a3.56,3.56,0,0,1,.16-.65.87.87,0,0,1,.4.08,23.54,23.54,0,0,1,6.29,6.37c3.15,4.76,3.23,9.59,1,14.67a29.17,29.17,0,0,0-1.77,4.35,34.1,34.1,0,0,1-7.34,12.42A104.14,104.14,0,0,1,117.29,68.4a187,187,0,0,1-40.95,21c-4,1.45-8,2.66-12,4-.89.24-1.78.4-2.75.65l-1.45-1.21a13.15,13.15,0,0,1-7.57,2.9,3.58,3.58,0,0,0-3,2.1V96.46c-.8-.49-1.29,0-1.53.56-.64,1.37-1.21,2.74-1.77,4.11-.24.73-.57,1.45-.81,2.18-2.17,6.45-6,11.93-9.35,17.81-2.17,3.87-4.59,7.66-6.85,11.53-2.1,3.55-4,7.25-6.13,10.8a13.57,13.57,0,0,1-1.45,2.34C20.31,147.4,18.86,147.16,17.81,145.31Zm32.49-58c0-2,1.05-3.55,1.93-5.24l7.58-13.06,1.13-1.94c-.08-.08-.24-.16-.32-.32-2.1,1.61-4.27,3.14-6.45,4.67-.16-.08-.32-.24-.81-.56A64.36,64.36,0,0,0,42,83.48a5.55,5.55,0,0,0-.89,4.59c2.58,1.77,5.56,1.77,8.63,1.13A6.88,6.88,0,0,0,50.3,87.35Zm-.08-52.56c-2.5,1.29-4.6,2.33-6.77,3.38C46.43,38.25,47.56,37.69,50.22,34.79Zm-5.4,65.13c1.37-.8,1.85-2.34,2.5-3.63a6.48,6.48,0,0,0-2.5,3.63,1.75,1.75,0,0,0-.81,2A21.27,21.27,0,0,1,44.82,99.92ZM64.33,60.5a28.69,28.69,0,0,0,2.9-3.79A116,116,0,0,0,49.09,70.09h1.77c-.16.41-.32.65-.4.89A104.22,104.22,0,0,0,64.33,60.5ZM61.75,89.2c-.41-.08-.73-.24-1-.08a53.54,53.54,0,0,0-6.37,1.93,2.19,2.19,0,0,0-1.45,2.18C56.18,92.59,58.76,90.41,61.75,89.2ZM78.19,43.25c-.48,1-.81,1.61-1.13,2.18A1.77,1.77,0,0,0,78.19,43.25Zm5.56-8.14a64.09,64.09,0,0,0-4.35,6.13c-.16.16,0,.56,0,.88C81,39.78,82.79,37.69,83.75,35.11Z" transform="translate(-3.95 -6.25)"/>
</clipPath>

<clipPath id="clip-l-1">
<path d="M119.7,97.91a13.07,13.07,0,0,0-1,1.37c-.24-.65-.56-1-.48-1.37.32-.81.73-1.54,1.13-2.34a6.14,6.14,0,0,0-1.21-.57,34.58,34.58,0,0,0,2.18-3.06c2-3.31,3.87-6.69,5.88-10.08,1.37-2.25,2.9-4.51,4.35-6.77a2.33,2.33,0,0,0,.41-.8c.8-1.94,1.53-4,2.42-5.89,2.66-6.37,5.4-12.82,8.14-19.18,1.21-3,2.5-5.89,3.71-8.87.88-2.18,1.61-4.35,2.25-6.53,1.7-5.64,4-11,5.16-16.85.24-1,.41-2,.57-3a1.56,1.56,0,0,0,0-1.05c-1.53-2.58,0-4.51,1.13-6.69.8.56,1.45.89,2,1.29a5.61,5.61,0,0,1,2.74,4.59,25,25,0,0,1-1.53,9.44c-3.14,9.11-6.37,18.13-9.67,27.16-2.26,6.05-4.68,12-7.18,17.9a150.87,150.87,0,0,1-8.87,17.25c-2.49,4.19-4.83,8.46-7.33,12.74a5.87,5.87,0,0,1-1.29,1.53c.32-1.69,1.61-2.82,2.42-4.27s1.77-3,2.58-4.52c.8-1.37,1.45-2.9,2.42-4.67a15.11,15.11,0,0,1-1.54.88,27.15,27.15,0,0,1,1.05-2.74l6.61-12.9c.32-.48.49-1,.81-1.53-1,0-1.13.89-1.45,1.37-2.18,4.27-4.28,8.55-6.61,12.82-3,5.56-6,11-9.27,16.77A15.22,15.22,0,0,0,119.7,97.91ZM148,46.8l-.33-.08c-.08.08-.08.24-.16.32.08.08.24.16.33.08S147.92,46.88,148,46.8Z" transform="translate(-3.95 -6.25)"/>
</clipPath>

<clipPath id="clip-a-1">
<path d="M146.22,84.36a32.71,32.71,0,0,0-1.85,3.23,35.38,35.38,0,0,0,4.92-3.07c5.24-4,10.48-7.9,15.8-11.85L169,69.53c.48-.32,1-.48,1.61-.81l1.21,2.74c1-.24,1.85-1.37,3.06-.56,1.45,2,.73,4,0,6a30.65,30.65,0,0,1-1.77,3.7l-6.77,13.63c-.25.48-.57,1-.89,1.53-.73-.89-.16-1.69.08-2.42.4-1,.81-1.93,1.29-2.9a17.44,17.44,0,0,0,2.5-4.68c-1.13,1.37-2.58,2.66-2.5,4.68C165.81,91,165.49,92,165,93c-.57,1.21-1.13,2.42-1.86,3.87l-1.29-1.45a9.77,9.77,0,0,1-1.05.56c-.32-.32-.64-.64-1-1,.4-1.45,1.29-2.66.88-4.27-.08-.4.32-.89.57-1.37L165,81.94c.16-.4.32-.88.72-1.77l-6.93,4.92a2.28,2.28,0,0,0-.73.08c-.8-.24-1-.16-1.61.89a5,5,0,0,1,1.21-.17,1.07,1.07,0,0,0,1.37-.56c.73-.32,1.45-.56,2.58-1a76.52,76.52,0,0,1-10.8,7.74c-1.94,1.21-3.95,2.18-6,3.23-2.5,1.29-5,.88-7.41-.08a2.57,2.57,0,0,1-1.62-2.83,14.79,14.79,0,0,1,2.42-7.65,87.43,87.43,0,0,1,5.56-7.42,76.89,76.89,0,0,1,14.43-13.06,20.36,20.36,0,0,1,6.37-2.74,14.31,14.31,0,0,0,2.74-1.37,14.07,14.07,0,0,1,3-1.29c1.69-.48,2.82.64,3.87,1.85-.33-.08-.65-.24-1.13-.4-.08.4-.24.81-.33,1.37.73.08,1.46.24,2.1.32A4.57,4.57,0,0,1,176,67.6c-1.77.8-1.94.72-3-.81-.33.16-.73.32-1.13.56-.24-.24-.57-.4-.81-.64a9.65,9.65,0,0,1-.48-1,27.68,27.68,0,0,0-3,1.37c-3.06,1.94-6.2,4-9.18,6-1.7,1-3.23,2.34-4.84,3.46C150.58,78.64,148.56,81.62,146.22,84.36Zm-3,7.26a9.42,9.42,0,0,1-1.45.32C143.08,92.42,143.48,92.26,143.24,91.62Zm1.53-1.29c.49.16.81.32,1.13.4a12.74,12.74,0,0,1,.73-1.29Zm10.8-3.87a.42.42,0,0,1,.17.32l.48-.56Z" transform="translate(-3.95 -6.25)"/>
</clipPath>

<clipPath id="clip-n-1">
<path d="M210.06,76.87c-1.45,5.48-2.82,10.88-4.19,16.36l-1,3.79a3.88,3.88,0,0,0-.08,2.18,3.94,3.94,0,0,1-1.29,4.11,2.4,2.4,0,0,1-3.15-.41,2.31,2.31,0,0,0-1-.56c-1.53-.73-1.93-1.45-1.61-3.06l2.1-8.63c.56-2.42,1.21-4.76,1.93-7.17.33-1.37.49-2.91,1.61-4a1.33,1.33,0,0,0,.41-1,17.32,17.32,0,0,0,.72-2.9,13.92,13.92,0,0,0-.16-2.58,5.58,5.58,0,0,0-3.54.64,50.6,50.6,0,0,0-17.26,13A4.38,4.38,0,0,1,182,88c-1.21.48-1.85-.08-1.77-1.37.24-1.61.64-3.22,1-4.84.72-3.38,2.5-6.45,4-9.51l2.17-4.11c-.16,0-.48.08-.88.08a32.47,32.47,0,0,1,5.08-7.82,8.59,8.59,0,0,1,1.2,1.21c-.72.64-1.37,1.21-2,1.85.89,1.46.56,3.07.24,4.68,1.21-1.77,2.5-3.22,3.71-5.08a4.77,4.77,0,0,1,.16,1c0,.32-.4.72-.32.81,1.05,1.61-.16,2.57-1,3.62a8.72,8.72,0,0,0-1.29,2.74l4.35-2.17c-.32.88-.48,1.21-.72,1.93,1.21-.4,2.33-.8,3.54-1.29a5,5,0,0,0-1-.64c3.06-4.28,8.06-2.74,10,.08A9.17,9.17,0,0,1,210.06,76.87ZM188.3,66.71a5.07,5.07,0,0,1-.65.8c-.08.17,0,.33,0,.57C188.22,67.84,188.78,67.51,188.3,66.71Z" transform="translate(-3.95 -6.25)"/>
</clipPath>

<clipPath id="clip-t-1">
<path d="M224.49,97.58l-.8.57c-1.46-.41-1.37-1.53-1.37-2.66a18.31,18.31,0,0,0-2.5-9.84,70.8,70.8,0,0,0-4.2-6,29.74,29.74,0,0,0-2.09-2.5c-2-2.42-2.1-5-.57-7.74.08-.08.25-.24.25-.32.48-3.07,2.9-4.44,5.24-5.48,3.46-1.54,7.17-2.66,10.72-3.95.16-.09.4,0,.8,0-1.69,1.77-3.95,2.33-5.64,3.78,1.94-.64,3.95-1.29,5.88-2,.33-.08.49-.32.81-.4,3.23-.65,4.6-3.15,5.73-5.89l.88-1c-.08-.08-.16-.08-.16-.16-.24.08-.48.24-.72.33.48-1.13.88-2.34,1.45-3.39,4-7.34,7.9-14.67,11.93-22,.4-.72.88-1.29,1.45-2.17.48.72.88,1.21,1.29,1.85.4-.4.8-.89,1.21-1.37,1.29.4,2.33,1.21,2.25,2.66a8,8,0,0,1-1,3.06c-1.54,2.66-3.39,5.24-4.84,7.9-2.5,4.52-4.76,9.19-7.17,13.79-.33.64-.57,1.37-1,2.17,1.37.17,2.58.33,3.79.57,3.7.48,6.12,2.82,8.22,5.72a1.94,1.94,0,0,1,.24,1c0,.4-.16.81-.16,1.21a3.07,3.07,0,0,0,.32,1.13c-.88.88-1.77,1.13-2.74.24a1.26,1.26,0,0,0-1.29-.32c-.4.08-1.05-.49-1.37-1A3.19,3.19,0,0,0,246,63.89c-2.34.16-4.76.4-7.34.64-1.53,3.87-3,7.58-4.35,11.29-2.34,6.53-4.6,13.06-5.73,19.83a8.79,8.79,0,0,1-.56,1.93c-.65,1.54-1.69,1.78-3,.65A2,2,0,0,1,224.49,97.58Zm-9.83-25.39c-1,1-.24,1.77.32,2.58A2.25,2.25,0,0,0,214.66,72.19ZM230.94,67c-5.4.89-11.28,3.79-12.74,6.29,2.42,3.3,4.92,6.61,7.42,10Z" transform="translate(-3.95 -6.25)"/>
</clipPath>

<clipPath id="clip-p-2">
<path d="M278.58,145.31c-.81.4-1.45.32-1.85-.49a18.84,18.84,0,0,1,.8-2.5c.73-1.37,1.61-2.58,2.42-3.87,5.56-9.59,11.13-19.26,16.77-28.77,1.77-3.07,3.95-5.81,5.88-8.71l3.07-5.08c-2.83-.24-4.84-1.61-6.86-3.14-2.58-1.86-3.22-4-2.41-7.1a17.22,17.22,0,0,1,3.3-6.12,103,103,0,0,1,29.51-25.88,8.26,8.26,0,0,0,3-3l11.28-17.9c1.29-2,2.74-4,4.2-6.13,1.69,1.46,3.54,2.18,3.46,4.76l-9.59,15.32a96.68,96.68,0,0,1,19.34-4c1.13,1.29-.48,1.69-.64,2.74h3.14a3.3,3.3,0,0,1-1,4c-3.23.64-6.45,1.29-9.76,1.85a31.23,31.23,0,0,0-8.22,2.5c-2.5,1.13-5,2.26-7.5,3.31a9,9,0,0,0-4.27,3.86c-4.67,7.82-9.35,15.56-14.11,23.38-.8,1.29-1.53,2.66-2.5,4.27,3.47-.08,6.29-1.53,9.84-2.17-.65-.32-1-.41-1.29-.57,5.32-1.93,10.56-3.78,15.64-5.8S350,75.58,355,73.72a31.47,31.47,0,0,0,7.17-4c2.75-1.85,5.73-3.3,8.55-5.08a103.46,103.46,0,0,0,23.62-19.1A41,41,0,0,0,401,35.59a17.07,17.07,0,0,0,1.53-9.75c-.56-3.31-2.18-5.73-5.4-6.93a29,29,0,0,0-9.27-2c-3.87-.08-7.74.16-11.61.16-2.26,0-4.43.73-6.77.32a8.1,8.1,0,0,0-3.22.73c-7.58,2.18-15.16,4.27-22.74,6.53-2.58.81-5,2-7.57,3.06a5.71,5.71,0,0,1-2.66.24c1-.48,1.93-1,3.06-1.45a8.25,8.25,0,0,1-1.21-.56c-5.08,2.82-10,5.64-15.08,8.38-3.06,1.7-6.28,3.15-9.43,4.84a42.64,42.64,0,0,0-8,5c-1.61,1.29-3.38,2.25-5.08,3.38-4.11,2.74-8.38,5.16-12.25,8.23a65.11,65.11,0,0,0-10.56,10.56,40.52,40.52,0,0,0-2.82,4.35c-.4.64-1,1.61-.73,2.26.41,1-.72,1-.56,1.85a7.09,7.09,0,0,0,1.13,3.63c.56.64,1.45,1,1,2.09-.08.08.08.25.16.33.4.56,1.05,1,1.05,1.61s-.41,1.21-.81,1.93l-2.42-2.17c-.56.24-1.21.48-1.85.8-.24-.16-.57-.32-.89-.56a8,8,0,0,1-3-8.87c1.21-5.08,4-9.27,7.25-13.22a29,29,0,0,1,7-6.69,38.38,38.38,0,0,0,4.59-3.47c1.29-1.21,2.26-2.82,3.79-3.87,2.18-1.53,4.11-3.22,6.37-4.75a146.57,146.57,0,0,1,24.26-13.63c2.9-1.2,5.81-2.66,8.63-3.95.64-.24,1.29-.88,2.09-.08.08.08.65-.16,1-.24a26.92,26.92,0,0,1,2.58-.89c2.34-.64,4.76-1,7.09-1.85a78.24,78.24,0,0,0,8.87-4c-3.3.32-6.37,1.86-9.67,2.18a125.39,125.39,0,0,1,17.57-5.81c.65.25,1.13.73,1.53.65a44.4,44.4,0,0,0,7.9-2.18c5-2.09,10.16-2.09,15.32-2.42a25.8,25.8,0,0,1,13,2.34c1.61.81,3.46,1.21,5.16,1.86a3.56,3.56,0,0,1,.16-.65.87.87,0,0,1,.4.08,23.54,23.54,0,0,1,6.29,6.37c3.14,4.76,3.22,9.59,1,14.67a29.22,29.22,0,0,0-1.78,4.35,34.07,34.07,0,0,1-7.33,12.42A104.44,104.44,0,0,1,378.06,68.4a187,187,0,0,1-41,21c-4,1.45-8,2.66-12,4-.88.24-1.77.4-2.74.65l-1.45-1.21a13.21,13.21,0,0,1-7.58,2.9,3.56,3.56,0,0,0-3,2.1V96.46c-.8-.49-1.29,0-1.53.56-.64,1.37-1.21,2.74-1.77,4.11-.25.73-.57,1.45-.81,2.18-2.18,6.45-6.05,11.93-9.35,17.81-2.18,3.87-4.6,7.66-6.85,11.53-2.1,3.55-4,7.25-6.13,10.8a14.21,14.21,0,0,1-1.45,2.34C281.08,147.4,279.63,147.16,278.58,145.31Zm32.49-58c0-2,1.05-3.55,1.93-5.24l7.58-13.06,1.13-1.94c-.08-.08-.24-.16-.32-.32-2.1,1.61-4.28,3.14-6.45,4.67-.16-.08-.33-.24-.81-.56a64.73,64.73,0,0,0-11.37,12.58,5.55,5.55,0,0,0-.88,4.59c2.58,1.77,5.56,1.77,8.62,1.13A6.94,6.94,0,0,0,311.07,87.35ZM311,34.79c-2.5,1.29-4.6,2.33-6.78,3.38C307.2,38.25,308.33,37.69,311,34.79Zm-5.41,65.13c1.38-.8,1.86-2.34,2.5-3.63a6.58,6.58,0,0,0-2.5,3.63,1.76,1.76,0,0,0-.8,2A21.17,21.17,0,0,1,305.58,99.92ZM325.09,60.5A27.92,27.92,0,0,0,328,56.71a116,116,0,0,0-18.14,13.38h1.77c-.16.41-.32.65-.4.89A103.48,103.48,0,0,0,325.09,60.5Zm-2.58,28.7c-.4-.08-.72-.24-1-.08a53,53,0,0,0-6.37,1.93,2.19,2.19,0,0,0-1.45,2.18C317,92.59,319.53,90.41,322.51,89.2ZM339,43.25c-.49,1-.81,1.61-1.13,2.18A1.77,1.77,0,0,0,339,43.25Zm5.56-8.14a64.09,64.09,0,0,0-4.35,6.13c-.16.16,0,.56,0,.88C341.78,39.78,343.55,37.69,344.52,35.11Z" transform="translate(-3.95 -6.25)"/>
</clipPath>

<clipPath id="clip-a-2">
<path d="M392.64,84.36a32.71,32.71,0,0,0-1.85,3.23,35.38,35.38,0,0,0,4.92-3.07c5.24-4,10.47-7.9,15.79-11.85l4-3.14c.48-.32,1-.48,1.61-.81l1.21,2.74c1-.24,1.85-1.37,3.06-.56,1.45,2,.73,4,0,6a30.65,30.65,0,0,1-1.77,3.7l-6.78,13.63c-.24.48-.56,1-.88,1.53-.73-.89-.16-1.69.08-2.42.4-1,.8-1.93,1.29-2.9a17.44,17.44,0,0,0,2.5-4.68c-1.13,1.37-2.58,2.66-2.5,4.68-1,.48-1.37,1.53-1.86,2.5-.56,1.21-1.12,2.42-1.85,3.87l-1.29-1.45a9.77,9.77,0,0,1-1,.56,12.67,12.67,0,0,0-1.05-1c.41-1.45,1.29-2.66.89-4.27-.08-.4.32-.89.57-1.37l3.78-7.42c.17-.4.33-.88.73-1.77l-6.93,4.92a2.28,2.28,0,0,0-.73.08c-.8-.24-1-.16-1.61.89a5,5,0,0,1,1.21-.17,1.07,1.07,0,0,0,1.37-.56c.72-.32,1.45-.56,2.58-1a77.1,77.1,0,0,1-10.8,7.74c-1.94,1.21-3.95,2.18-6,3.23-2.5,1.29-5,.88-7.41-.08a2.57,2.57,0,0,1-1.62-2.83,14.79,14.79,0,0,1,2.42-7.65,85.35,85.35,0,0,1,5.56-7.42,76.89,76.89,0,0,1,14.43-13.06A20.26,20.26,0,0,1,411,61.55a14.6,14.6,0,0,0,2.74-1.37,14.07,14.07,0,0,1,3-1.29c1.69-.48,2.82.64,3.86,1.85-.32-.08-.64-.24-1.12-.4-.08.4-.25.81-.33,1.37.73.08,1.45.24,2.1.32a4.57,4.57,0,0,1,1.13,5.57c-1.78.8-1.94.72-3-.81-.33.16-.73.32-1.13.56-.25-.24-.57-.4-.81-.64a9.65,9.65,0,0,1-.48-1,27.68,27.68,0,0,0-3,1.37c-3.06,1.94-6.2,4-9.19,6-1.69,1-3.22,2.34-4.83,3.46C397,78.64,395,81.62,392.64,84.36Zm-3,7.26a9.42,9.42,0,0,1-1.45.32C389.5,92.42,389.9,92.26,389.66,91.62Zm1.53-1.29c.48.16.81.32,1.13.4a14.31,14.31,0,0,1,.72-1.29ZM402,86.46a.42.42,0,0,1,.16.32l.49-.56Z" transform="translate(-3.95 -6.25)"/>
</clipPath>

<clipPath id="clip-r-1">
<path d="M457.21,67.76a5,5,0,0,1-3.55,4.51c-.32-.48-.72-1-1-1.53-.17,0-.25-.08-.41-.08-.72-.08-1.53.72-2.25-.08-.09-.08-.65.16-1,.32a33.83,33.83,0,0,0-10.24,6.85v-.08a28.4,28.4,0,0,1-2.26,3.15c-1.13,1.45-2.5,2.66-3.71,4a14.15,14.15,0,0,0-2,3.06,67.92,67.92,0,0,1-3.47,6.21l-2.9-1.62c-.32-1.21-.72-2.57-1-4,3.39-9.19,8.31-17.81,11.13-27.4l2.5,1.2c-.08.49-.08,1-.16,1.7.72.16,1.45.24,2.41.4-.4,1.77-.8,3.39-1.29,5.24.57-.4,1.05-.72,1.45-1a21.72,21.72,0,0,1,10.08-5,8.63,8.63,0,0,1,2.82-.24,1.78,1.78,0,0,1,1.29.73c.57.56,1,1.37,1.53,2,.25.25.81.17,1.21.33A1.25,1.25,0,0,1,457.21,67.76Zm-18.46,9.91a5,5,0,0,1-.24-.8,23.77,23.77,0,0,0-5.32,4.91c-.32.33-.32,1-.57,2,1.86-2,3.23-3.71,4.76-5.32A10.34,10.34,0,0,1,438.75,77.67Zm14.59-12.9c-1.21-1-2.09-.56-3-.4a23.66,23.66,0,0,0-9.59,4.43C445.12,67.35,449.07,66.14,453.34,64.77Z" transform="translate(-3.95 -6.25)"/>
</clipPath>

<clipPath id="clip-e-1">
<path d="M466.64,90.89a5.61,5.61,0,0,0,.48-.72c-1.61-1.13-2.5-3-4.51-3.63-.48-.16-.81-.81-1.21-1.21-.56-.64-1.13-1.37-1.61-2a2.8,2.8,0,0,1-.4-1c-.09-.73-.09-1.37-.17-2.1-1.53-.08-3.3,1.21-4.67-.72.08-.57.08-1.29.16-2.1.56-.4,1.13-.81,1.69-1.29l-.08.08c1.69.08,3.47.16,5-.81a4,4,0,0,0,1.37-.88,24.61,24.61,0,0,1,5.24-4.36,18.18,18.18,0,0,0,4.51-4.19,7.18,7.18,0,0,1,1.7-1.77q2.06-1.57,4.11-2.9c1.69-1.13,3.46-2.1,5.24-3.07a3.22,3.22,0,0,1,3.38,0c.73.41,1.46.73,2.1,1.05-.32.24-1.13-.48-1.05.89l1.05-.89c2.34,1.21,2.82,2.74,1.77,5.08A11,11,0,0,1,488,67.92a59.12,59.12,0,0,1-10.48,7.33c-3.62,2.1-7.57,3.39-11.28,5-.41.16-.89.32-1.21.49.08,4.27,2.5,6.2,8.62,6.69-.24-.25-.32-.49-.56-.73a41.43,41.43,0,0,0,4.84-1c1.53-.4,3.06-1.13,4.75-1.69a24.89,24.89,0,0,1,2.26,1.61c1.53,1.21,1.53,3.23-.08,4.11a18.53,18.53,0,0,1-9.67,2.66h-2.91C470.27,92.42,468.49,91.54,466.64,90.89Zm-3.22-9.75c-.73.32-.49.8-.25,1.45C463.25,81.94,463.34,81.54,463.42,81.14Zm15-12.9-.24-1a36.44,36.44,0,0,0-7.82,5.89A25.19,25.19,0,0,0,478.41,68.24Z" transform="translate(-3.95 -6.25)"/>
</clipPath>

<clipPath id="clip-n-2">
<path d="M523.71,76.87c-1.45,5.48-2.82,10.88-4.19,16.36l-1,3.79a4.07,4.07,0,0,0-.08,2.18,3.92,3.92,0,0,1-1.29,4.11,2.39,2.39,0,0,1-3.14-.41,2.38,2.38,0,0,0-1-.56c-1.53-.73-1.93-1.45-1.61-3.06l2.09-8.63c.57-2.42,1.21-4.76,1.94-7.17.32-1.37.48-2.91,1.61-4a1.37,1.37,0,0,0,.4-1,16.42,16.42,0,0,0,.73-2.9,13.92,13.92,0,0,0-.16-2.58,5.63,5.63,0,0,0-3.55.64,50.66,50.66,0,0,0-17.25,13A4.47,4.47,0,0,1,495.66,88c-1.21.48-1.86-.08-1.77-1.37.24-1.61.64-3.22,1-4.84.73-3.38,2.5-6.45,4-9.51l2.18-4.11c-.16,0-.48.08-.89.08a33.09,33.09,0,0,1,5.08-7.82,8.12,8.12,0,0,1,1.21,1.21c-.72.64-1.37,1.21-2,1.85.88,1.46.56,3.07.24,4.68,1.21-1.77,2.5-3.22,3.71-5.08a4.77,4.77,0,0,1,.16,1c0,.32-.41.72-.32.81,1,1.61-.17,2.57-1.05,3.62A8.5,8.5,0,0,0,506,71.3l4.35-2.17c-.32.88-.48,1.21-.72,1.93,1.2-.4,2.33-.8,3.54-1.29a4.71,4.71,0,0,0-1-.64c3.07-4.28,8.07-2.74,10,.08A9.17,9.17,0,0,1,523.71,76.87ZM502,66.71a5.71,5.71,0,0,1-.65.8c-.08.17,0,.33,0,.57C501.87,67.84,502.43,67.51,502,66.71Z" transform="translate(-3.95 -6.25)"/>
</clipPath>

<clipPath id="clip-t-2">
<path d="M538.14,97.58l-.81.57c-1.45-.41-1.37-1.53-1.37-2.66a18.22,18.22,0,0,0-2.5-9.84c-1.21-2.09-2.74-4-4.19-6a29.74,29.74,0,0,0-2.09-2.5c-2-2.42-2.1-5-.57-7.74.08-.08.24-.24.24-.32.49-3.07,2.91-4.44,5.24-5.48,3.47-1.54,7.18-2.66,10.72-3.95.17-.09.41,0,.81,0-1.69,1.77-4,2.33-5.64,3.78,1.93-.64,3.95-1.29,5.88-2,.33-.08.49-.32.81-.4,3.22-.65,4.59-3.15,5.72-5.89l.89-1c-.08-.08-.16-.08-.16-.16-.24.08-.49.24-.73.33.49-1.13.89-2.34,1.45-3.39,3.95-7.34,7.9-14.67,11.93-22,.41-.72.89-1.29,1.45-2.17.49.72.89,1.21,1.29,1.85.41-.4.81-.89,1.21-1.37,1.29.4,2.34,1.21,2.26,2.66A7.85,7.85,0,0,1,569,33c-1.53,2.66-3.38,5.24-4.83,7.9-2.5,4.52-4.76,9.19-7.18,13.79-.32.64-.56,1.37-1,2.17,1.37.17,2.58.33,3.78.57,3.71.48,6.13,2.82,8.23,5.72a1.94,1.94,0,0,1,.24,1c0,.4-.16.81-.16,1.21a3.07,3.07,0,0,0,.32,1.13c-.89.88-1.77,1.13-2.74.24a1.26,1.26,0,0,0-1.29-.32c-.4.08-1-.49-1.37-1a3.21,3.21,0,0,0-3.39-1.53c-2.33.16-4.75.4-7.33.64-1.53,3.87-3,7.58-4.36,11.29-2.33,6.53-4.59,13.06-5.72,19.83a8.79,8.79,0,0,1-.56,1.93c-.65,1.54-1.7,1.78-3,.65A2.08,2.08,0,0,1,538.14,97.58ZM528.3,72.19c-1,1-.24,1.77.33,2.58A2.23,2.23,0,0,0,528.3,72.19ZM544.59,67c-5.4.89-11.29,3.79-12.74,6.29,2.42,3.3,4.92,6.61,7.42,10Z" transform="translate(-3.95 -6.25)"/>
</clipPath>

<clipPath id="clip-h-1">
<path d="M579.09,62.27a14.92,14.92,0,0,1-.4,1.54c3.14-2.1,5.15-5.16,8.7-5.73-.32.41-.72.65-1.45,1.37l4.76-.8a2.12,2.12,0,0,1,2.42,1,8.77,8.77,0,0,1,1.53,6.45c-.33,2.34-.81,4.6-1.37,6.94-1.78,6.37-3.47,12.81-5.24,19.18-.81,2.9-1.78,5.81-2.66,8.71-.33.89-.65,1.69-1.13,2.82a11.7,11.7,0,0,0-1.21-1.85,8.7,8.7,0,0,1-1,1.93c-.08.08-.24,0-.32,0a3.3,3.3,0,0,1,0-.89,11.26,11.26,0,0,1,1.37-2.58c1.29-1.85,1.69-4.11,2.42-6.2.88-2.58,1.85-5.16,2.66-7.82.4-1.53,1.37-3,1.29-4.76-.08-1.21.72-2.26,1.05-3.38,1-3.23,2.17-6.53,2.17-9.92.08-1.61-.08-3.3-.16-4.92-.89.65-.64,1.53-.81,2.42a108.72,108.72,0,0,1-3.54,13.46c-1.86,5.89-3.63,11.77-5.48,17.66-.17.8-.57,1.53-1,2.74,0-1,0-1.69.08-2.82-.81,1.69-1.53,3.14-2.34,4.91-.08-.72-.16-1-.16-1.37,1-2.66,1.85-5.4,2.66-8.14l1.45-5c1.13-4,2.42-7.9,3.47-11.76.8-2.91,1.21-6,1.77-8.79a5.37,5.37,0,0,0-.4-3.71c-1.37.08-2.26,1-3.15,1.85a53.49,53.49,0,0,0-7.33,9.6c-2.82,4.51-5.48,9.19-8.3,13.7l-1.29,2c-.17-.08-.33-.25-.65-.41-.48,1-1,1.94-1.45,2.82-1.53-.56-3.31-.56-3.87-3,1.61-4.27,3.39-8.78,5.16-13.22,2.74-6.69,5.64-13.38,8.22-20.15,4-9.92,7.66-19.75,11.61-29.67,1.69-4.43,3.63-8.78,5.4-13.14a3.5,3.5,0,0,1,1.37-1.69c-.4,1.13-.8,2.1-1.13,3.23l.73,1.2c.56-1.53,1.13-2.82,1.77-4.35.65.89.81,1.53.24,2.34-.64,1-1.29,2-1.93,3.14a10.56,10.56,0,0,0-.73,1.86c1.62-1.29,1.45-3.55,3.47-3.79.89.4.81,1,.48,1.85-.72,2-1.37,4.11-2.17,6.21-1.86,4.76-3.79,9.59-5.73,14.27-.48,1.37-1.29,2.58-1.93,4-1,2.5-1.86,5-2.9,7.58C582.39,53.49,580.78,57.92,579.09,62.27Zm13.38.89c.65-.72.57-1.13-.32-1.69C591.58,62.19,592.07,62.76,592.47,63.16Z" transform="translate(-3.95 -6.25)"/>
</clipPath>

<clipPath id="clip-o-1">
<path d="M595.05,87.18a13.58,13.58,0,0,1,.24-3.62,27.62,27.62,0,0,1,5.64-12.26c1.45-1.69,2.66-3.46,4.19-5.07a15,15,0,0,1,3.47-2.5,5,5,0,0,0,2.1-2.18c1-2.34,3.3-3.06,5.48-3.31,1.37-.24,2.18,1,2.58,1.86,1,.56,1.77.8,2.09,1.29.57,1,1.29,2.17.73,3.3-.64,1.29-.32,2.34-.08,3.63a25.83,25.83,0,0,1,.64,9.35,16.51,16.51,0,0,1-2.66,6.93,19.68,19.68,0,0,1-7.25,7.1,9.13,9.13,0,0,0-5.89.16,16.68,16.68,0,0,1-2.82,1A6.58,6.58,0,0,1,595.05,87.18Zm9-11.93a13.85,13.85,0,0,0,3.62-3.62,14.78,14.78,0,0,1,2.5-2.5c.89-.81,1.86-1.62,2.74-2.5A27.88,27.88,0,0,0,615,64l-.64-.89c-1.21.81-2.34,1.53-3.47,2.34-2.9,1.93-4.84,4.92-7.58,7.17-2.42,2-3.38,5.16-4.67,8A18.72,18.72,0,0,1,604,75.25ZM607.3,89a8,8,0,0,0,5-3.23c1.45-1.93,3.47-3.38,4.43-5.64.08-.16.57-.08,1-.08,1.45-1.93,1-4.35.89-7-.65,1.85-1.21,3.46-1.7,5.08a20.6,20.6,0,0,0-.72-12.42l-.32,1.53a3.3,3.3,0,0,1-.41-.72H615a49.05,49.05,0,0,0-8,6.85,29.78,29.78,0,0,0-4.6,6.37,10,10,0,0,0-1.61,7.74c1.37.24,2.66.4,3.95.64a.29.29,0,0,1-.08.24h-3.54c.72,1.37,1.61,1.86,3,1.45C605.21,89.52,606.17,89.12,607.3,89Z" transform="translate(-3.95 -6.25)"/>
</clipPath>

<clipPath id="clip-o-2">
<path d="M624.15,92.5c-.73-2-1.77-4-1.77-6.2s1-4.19,1.93-6.21a36.64,36.64,0,0,1,2-4c1-1.69,1.86-3.39,2.91-5.08,1.77-2.66,3.54-5.4,5.48-8a17.25,17.25,0,0,1,6.77-5.24c.89-.4,1.85-.56,2.82-.89l1.61,2.83-.56,1c.16.08.24.25.32.25a13.79,13.79,0,0,1,7,2.41,3.09,3.09,0,0,1,1.54,2.18,1.5,1.5,0,0,0,.4,1c2.58,2.58,2,5.56.89,8.46a18.39,18.39,0,0,1-2.91,4.84,47.47,47.47,0,0,1-18.38,13.7,13.64,13.64,0,0,1-6.69,1.13A3.63,3.63,0,0,1,624.15,92.5Zm14.67-8.38c5.16-3.06,9.43-7,11.93-12.57a10.58,10.58,0,0,0,.4-1.7,10.66,10.66,0,0,0-6.53-2.09c-3-.08-4.91,2.33-6.77,3.95-1.53.48-2-.49-2.66-1.53a52.06,52.06,0,0,0-7.66,12c-.72,1.53-1.45,3.06-1.12,4.83a5.63,5.63,0,0,0,4.11.65A26.32,26.32,0,0,0,638.82,84.12ZM652.2,71.06l-1.13,2.74a1.31,1.31,0,0,0,.41.32C651.88,73.24,652.85,72.59,652.2,71.06Z" transform="translate(-3.95 -6.25)"/>
</clipPath>

<clipPath id="clip-d-1">
<path d="M718.62,24.15a67.46,67.46,0,0,1-6.2,13.38,188.68,188.68,0,0,1-11.53,18.14,5.1,5.1,0,0,0-.64,1.12,244.77,244.77,0,0,0-8.79,23.7,2.17,2.17,0,0,1-.08.57c.88,1,1.77,2,2.66,3.06a23.08,23.08,0,0,1-4.44,8.63c-1.2,1.53-2.41,1.69-4.19.8-.16-.08-.4-.32-.56-.24a1.48,1.48,0,0,1-1.69-.64,3.75,3.75,0,0,1-.41-2.1,34.94,34.94,0,0,1,1-5.8c.73-2.5,1.69-5,2.5-7.42a7.6,7.6,0,0,0,.56-2.74c-.48.48-1,1-1.37,1.45a112.3,112.3,0,0,1-15,14.75,23.9,23.9,0,0,1-6.61,3.87c-2.42,1-4.6.08-6.69-.89-1.29-.64-1.61-1.85-1.53-3.38.32-4.27,2.17-8,4.51-11.45a47.89,47.89,0,0,1,21-17.57,20.17,20.17,0,0,1,8.79-1.78c2.17-3.14,4.75-6,6.2-9.51,1.78-4.19,3.79-8.3,5.81-12.33a56.93,56.93,0,0,1,3.54-6.05c.49-.8,1.46-1.13,1.94-2.17a65.86,65.86,0,0,0,3.79-7.5,7.46,7.46,0,0,1,3.14-3.95l.57,1.29C717.74,19.31,719.51,21.4,718.62,24.15Zm-57.71,61.5-.24-.8c-.09.08-.25.08-.33.16l.24.72C660.75,85.73,660.83,85.65,660.91,85.65Zm1.37-3.54c-.65.32-.81,1-1,1.61l.4.24Zm.56-1.21a3.9,3.9,0,0,0-.32.88l.64-.72C663.08,81,662.92,81,662.84,80.9ZM682,69.05c-5.89,2.09-15.72,10.64-19.11,18C670.66,82.11,676.46,75.66,682,69.05ZM665.34,78.4c.16-.32.32-.49.48-.81C665.42,77.67,664.94,77.59,665.34,78.4Zm.65-1c.32-.24,1.12-.32.4-1.37Zm17.33-7.66a77.81,77.81,0,0,0-8.71,10.08l.4.4c1.53-1.61,3-3.3,4.52-4.92C683,71.55,683.16,71.38,683.32,69.77Z" transform="translate(-3.95 -6.25)"/>
</clipPath>

</defs>
</svg>