<svg id="Layer_1" data-name="Layer 1" xmlns="http://www.w3.org/2000/svg" viewBox="0 0 1101.43 110.1"><title>plantC</title><path d="M92.24,44c2.1,0,2.85.9,2.85,2.1s-4.8,4.65-8.55,13.8c-3.15,7.65-4.8,11.84-9.3,32.09C69.44,127.55,57.74,139,40.49,139c-20.85,0-35.7-16.5-35.7-27S22.34,92.3,31,92.3c2.7,0,3.75,1,3.75,2.4s-.6,2.1-2.7,3.45c-5.1,3.45-10.35,9.9-10.35,16.95a13.83,13.83,0,0,0,14,14c9.15,0,17.1-11.85,24-39.9,5.4-22.34,7.65-30.59,14-37.64C78.44,46.56,90.29,44,92.24,44Zm-10,53.84a2.48,2.48,0,0,1,2.25-2.55c16,0,32.69-14.09,32.69-33.89,0-14.55-10.94-23.85-30-23.85-27.9,0-43.95,12.45-43.95,30.59,0,9.15,7.5,12,7.5,13.95,0,2.1-1.2,2.85-3.15,2.85-7.95,0-23.85-7.35-23.85-19.2,0-22.34,31.65-36.89,63.75-36.89,30.59,0,49.94,15,49.94,34.05,0,24.74-28,38.69-44.24,38.69C84.89,101.6,82.19,99.5,82.19,97.85Z" transform="translate(-4.79 -28.86)"/><path d="M133.64,116.45c0-30.15,22.35-83.39,43.94-83.39,6.75,0,12.6,6.9,12.6,12.3,0,12.75-22.19,47.54-37.19,60.29a70.53,70.53,0,0,0-1.2,11.4c0,6.9,3.45,11.85,9.6,11.85,8.1,0,16.05-12.9,16.05-12.9s1.19-2.1,3-2.1a3.14,3.14,0,0,1,3.15,3,9.86,9.86,0,0,1-1.35,3.6S171.29,139,156.44,139C144.59,139,133.64,130.55,133.64,116.45Zm47.24-73.34c-5.4,0-19.49,27.29-25.64,52.34,10.35-8.55,27.44-41.09,27.44-50.24C182.68,43.86,181.93,43.11,180.88,43.11Z" transform="translate(-4.79 -28.86)"/><path d="M227.68,139c-8.25,0-14.7-4.35-15.75-12.75,0,0-9.9,12.75-21.3,12.75-8.09,0-15-6.45-15-15.6,0-21.6,18-44.55,34.49-44.55,12.15,0,16.35,7,16.35,7,4.5,0,10.65,1.8,10.65,7.05,0,4.5-8.7,21.6-8.7,31.8a4,4,0,0,0,4.2,4.2c8.1,0,16.05-12.9,16.05-12.9s1.2-2.1,3-2.1a3.14,3.14,0,0,1,3.15,3,9.86,9.86,0,0,1-1.35,3.6S242.53,139,227.68,139ZM213.28,87.5c-8.7,0-19.34,20.7-19.34,33.3,0,4.35,1.19,6.75,4.34,6.75,7.2,0,20.4-22,20.4-33.6C218.68,89.6,216.28,87.5,213.28,87.5Z" transform="translate(-4.79 -28.86)"/><path d="M306,128.9c8.1,0,16-12.9,16-12.9s1.2-2.1,3-2.1a3.14,3.14,0,0,1,3.15,3,9.86,9.86,0,0,1-1.35,3.6S315.88,139,301,139c-11.4,0-19-6.75-19-15.15,0-12.3,7.65-23.1,7.65-32.1,0-1.35-1.35-2.4-3-2.4-9,0-23.1,17.85-23.1,46.65,0,2.55-1.2,3-3.3,3-8,0-14.1-3.45-14.1-8.25,0-16.65,8.7-39,12.15-47.55a4.32,4.32,0,0,1,4.05-2.85c2.25,0,5.85.91,10.5,8.1,0,0,10.8-9.6,23.55-9.6,6.6,0,12.75,7,12.75,12.9,0,9-7.95,20.7-7.95,31.5C301.18,126.65,303,128.9,306,128.9Z" transform="translate(-4.79 -28.86)"/><path d="M320.53,121.1c0-8.25,4.35-25.35,9.6-40.95h-4.05c-.75,0-1.2-.44-1.2-1.35,0-1.5,2.4-5.25,4.5-5.25h3c3-8.09,6-15.29,8.7-20.09a4.55,4.55,0,0,1,4.05-2.85c4.5,0,11.7,6.3,11.7,9,0,1.35-2.25,6.6-4.95,13.94h10.05c.75,0,1.2.45,1.2,1.35,0,1.5-2.55,5.25-4.5,5.25h-9.3c-4.95,13.35-10.5,30.15-10.5,40.95a7.69,7.69,0,0,0,7.5,7.8c3.45,0,7.8-5,7.8-5,.75-.9,1.8-2.1,3.15-2.1a3.55,3.55,0,0,1,3.3,3.3c0,1.35-1.65,3.3-1.65,3.3s-8.25,10.5-17.1,10.5C332.38,139,320.53,131.6,320.53,121.1Z" transform="translate(-4.79 -28.86)"/><path d="M479.38,44c2.1,0,2.85.9,2.85,2.1s-4.8,4.65-8.55,13.8c-3.15,7.65-4.8,11.84-9.3,32.09-7.8,35.55-19.5,46.95-36.75,46.95-20.85,0-35.7-16.5-35.7-27S409.48,92.3,418.18,92.3c2.7,0,3.75,1,3.75,2.4s-.6,2.1-2.7,3.45c-5.1,3.45-10.35,9.9-10.35,16.95a13.83,13.83,0,0,0,13.95,14c9.15,0,17.1-11.85,24-39.9,5.4-22.34,7.65-30.59,13.95-37.64C465.58,46.56,477.43,44,479.38,44ZM469.33,97.85a2.48,2.48,0,0,1,2.25-2.55c16.05,0,32.7-14.09,32.7-33.89,0-14.55-10.95-23.85-30-23.85-27.9,0-43.95,12.45-43.95,30.59,0,9.15,7.5,12,7.5,13.95,0,2.1-1.2,2.85-3.15,2.85-7.95,0-23.85-7.35-23.85-19.2,0-22.34,31.65-36.89,63.75-36.89,30.6,0,49.95,15,49.95,34.05,0,24.74-28,38.69-44.25,38.69C472,101.6,469.33,99.5,469.33,97.85Z" transform="translate(-4.79 -28.86)"/><path d="M561.43,139c-8.25,0-14.7-4.35-15.75-12.75,0,0-9.9,12.75-21.3,12.75-8.1,0-15-6.45-15-15.6,0-21.6,18-44.55,34.5-44.55,12.15,0,16.35,7,16.35,7,4.5,0,10.65,1.8,10.65,7.05,0,4.5-8.7,21.6-8.7,31.8a4,4,0,0,0,4.2,4.2c8.1,0,16-12.9,16-12.9s1.2-2.1,3-2.1a3.14,3.14,0,0,1,3.15,3,9.86,9.86,0,0,1-1.35,3.6S576.28,139,561.43,139ZM547,87.5c-8.7,0-19.35,20.7-19.35,33.3,0,4.35,1.2,6.75,4.35,6.75,7.2,0,20.4-22,20.4-33.6C552.43,89.6,550,87.5,547,87.5Z" transform="translate(-4.79 -28.86)"/><path d="M625.33,128.9c8.1,0,16-12.9,16-12.9s1.2-2.1,3-2.1a3.14,3.14,0,0,1,3.15,3,9.86,9.86,0,0,1-1.35,3.6S635.23,139,620.38,139c-11.4,0-19-6.75-19-15,0-13.2,9.45-23.55,9.45-28.2,0-3-9-3.6-9-3.6a142.51,142.51,0,0,1-14.55,28.35c-.45.6-1.5,2.25-3.3,2.25a3.52,3.52,0,0,1-3.15-3.15c0-1.35,1.2-2.85,1.65-3.6a92.76,92.76,0,0,0,13.05-26.7,14,14,0,0,1-5-11.09c0-6.16,5.1-11.11,8.7-11.11,4.2,0,9.3,4.8,9.3,7.8,0,3.9-1.95,6.31-1.95,8.7,0,2.1,2.7,3.15,6.3,3.15,6.75,0,8.85-2,12.45-2s6.15,3.3,6.15,7.2c0,6.75-11.1,19.5-11.1,31.65C620.38,127.1,622.33,128.9,625.33,128.9Z" transform="translate(-4.79 -28.86)"/><path d="M666.28,139c-15.15,0-26.1-9.3-26.1-22,0-23,19.05-38.1,32.1-38.1,9.15,0,16.5,7.8,16.5,15.75,0,7.2-5.55,22.2-24.45,22.2a41.25,41.25,0,0,1-5.7-.9c0,8.85,6,14,13.2,14,14.25,0,23.1-13.8,23.1-13.8s1.2-2.1,3-2.1a3.14,3.14,0,0,1,3.15,3,9.86,9.86,0,0,1-1.35,3.6S689.08,139,666.28,139Zm12.6-49.5c0-2-1-3-2.7-3-8.25,0-16.8,15.45-16.8,23.25C670.33,109.7,678.88,95.75,678.88,89.45Z" transform="translate(-4.79 -28.86)"/><path d="M752.23,128.9c8.1,0,16-12.9,16-12.9s1.2-2.1,3-2.1a3.14,3.14,0,0,1,3.15,3,9.86,9.86,0,0,1-1.35,3.6s-11,18.45-25.8,18.45c-11.4,0-19-6.75-19-15.15,0-12.3,7.65-23.1,7.65-32.1,0-1.35-1.35-2.4-3-2.4-9,0-23.1,17.85-23.1,46.65,0,2.55-1.2,3-3.3,3-8,0-14.1-3.45-14.1-8.25,0-16.65,8.7-39,12.15-47.55a4.32,4.32,0,0,1,4.05-2.85c2.25,0,5.85.91,10.5,8.1,0,0,10.8-9.6,23.55-9.6,6.6,0,12.75,7,12.75,12.9,0,9-8,20.7-8,31.5C747.43,126.65,749.23,128.9,752.23,128.9Z" transform="translate(-4.79 -28.86)"/><path d="M809.08,116s1.2-2.1,3-2.1a3.14,3.14,0,0,1,3.15,3,9.86,9.86,0,0,1-1.35,3.6s-11,18.45-25.8,18.45c-9.45,0-21.3-7.35-21.3-17.85,0-8.25,4.35-25.35,9.6-40.95h-4c-.75,0-1.2-.44-1.2-1.35,0-1.5,2.4-5.25,4.5-5.25h3c3-8.09,6-15.29,8.7-20.09a4.55,4.55,0,0,1,4-2.85c4.5,0,11.7,6.3,11.7,9,0,1.35-2.25,6.6-5,13.94h10c.75,0,1.2.45,1.2,1.35,0,1.5-2.55,5.25-4.5,5.25h-9.3c-5,13.35-10.5,30.15-10.5,40.95a7.78,7.78,0,0,0,7.95,7.8C801.13,128.9,809.08,116,809.08,116Z" transform="translate(-4.79 -28.86)"/><path d="M842.22,122.45c0-10.8,7.8-21.75,7.8-27.3,0-3-1.2-4.35-3.3-4.35-10.5,0-22.49,17.85-22.49,45.15,0,1.8-.6,3-2.7,3-6,0-14.7-2.4-14.7-8.1,0-25,20.85-97.79,48.74-97.79,6.75,0,13.5,7.8,13.5,13.2,0,12.45-19.05,35.09-20.1,36.29a24.44,24.44,0,0,1,12.45-3.75c4.5,0,9.6,5.25,9.6,10.35,0,9.3-9.6,22.35-9.6,34.05,0,3.45,1.8,5.7,4.8,5.7,8.1,0,16-12.9,16-12.9s1.2-2.1,3-2.1a3.14,3.14,0,0,1,3.15,3,9.86,9.86,0,0,1-1.35,3.6s-11,18.45-25.8,18.45C849.88,139,842.22,132.2,842.22,122.45Zm16.65-79.34c-5.55,0-15.9,20-25.64,46.64,10.35-8.54,28.49-34.49,28.49-43.64A2.72,2.72,0,0,0,858.87,43.11Z" transform="translate(-4.79 -28.86)"/><path d="M927.72,133.4a41.54,41.54,0,0,1-5.85-.45,27.56,27.56,0,0,1-17.1,6c-12.44,0-23.39-9.45-23.39-21.15,0-25.2,19.19-39,34.79-39,12.45,0,22.05,8.4,22.05,22.2,0,8-3.45,17.4-9.3,24.9a11.66,11.66,0,0,0,2.4.3c10.2,0,17.7-10.2,17.7-10.2s1.2-2.1,3-2.1a3.14,3.14,0,0,1,3.15,3,9.86,9.86,0,0,1-1.35,3.6A32.37,32.37,0,0,1,927.72,133.4Zm-21.45-1.65a7.27,7.27,0,0,0,4.65-1.8c-1.65-1-2.55-2.25-2.55-3.6,0-3.3,5.1-7.35,7.5-7.35a5.39,5.39,0,0,1,1.65.3,68.94,68.94,0,0,0,4.65-23.4c0-6.75-2.4-9.45-5.85-9.45-6.75,0-17.25,14.85-17.25,35.1C899.07,127.55,901.77,131.75,906.27,131.75Z" transform="translate(-4.79 -28.86)"/><path d="M994.47,133.4a41.54,41.54,0,0,1-5.85-.45,27.56,27.56,0,0,1-17.1,6c-12.45,0-23.4-9.45-23.4-21.15,0-25.2,19.2-39,34.8-39,12.45,0,22.05,8.4,22.05,22.2,0,8-3.45,17.4-9.3,24.9a11.66,11.66,0,0,0,2.4.3c10.2,0,17.7-10.2,17.7-10.2s1.2-2.1,3-2.1a3.14,3.14,0,0,1,3.15,3,9.86,9.86,0,0,1-1.35,3.6A32.37,32.37,0,0,1,994.47,133.4ZM973,131.75a7.27,7.27,0,0,0,4.65-1.8c-1.65-1-2.55-2.25-2.55-3.6,0-3.3,5.1-7.35,7.5-7.35a5.39,5.39,0,0,1,1.65.3,68.94,68.94,0,0,0,4.65-23.4c0-6.75-2.4-9.45-5.85-9.45-6.75,0-17.25,14.85-17.25,35.1C965.82,127.55,968.52,131.75,973,131.75Z" transform="translate(-4.79 -28.86)"/><path d="M1056.57,124.25S1044.42,139,1032,139c-8.55,0-17.1-7.5-17.1-18.45,0-24.6,21.9-41.7,35.7-41.7a18.16,18.16,0,0,1,9.45,2.41c6.9-24.6,19.35-48.15,33.15-48.15,6.15,0,13,7,13,13.95,0,14.55-33,60-33,60a43.29,43.29,0,0,0-.6,7.5c0,8.25,2.55,14.4,8.1,14.4,8.1,0,15.9-12.9,15.9-12.9s1.2-2.1,3-2.1a3.14,3.14,0,0,1,3.15,3,9.86,9.86,0,0,1-1.35,3.6s-11,18.45-25.8,18.45C1064.37,139,1057.17,129.5,1056.57,124.25Zm-2.7-37c-9.6,0-20.4,20.7-20.4,33,0,5.4,2.1,8.55,5.55,8.55,6.3,0,16.5-12.45,16.5-12.45a205.84,205.84,0,0,1,2.55-26.7A5.74,5.74,0,0,0,1053.87,87.2ZM1098,44.61c0-1.5-.75-2.55-2.1-2.55-5.1,0-16.5,27.59-21.75,53.84C1074.12,95.9,1098,57.66,1098,44.61Z" transform="translate(-4.79 -28.86)"/></svg>