<svg id="Layer_1" data-name="Layer 1" xmlns="http://www.w3.org/2000/svg" viewBox="0 0 100 125"><title>Artboard 1</title><path d="M51.81,24c-1.93-.14-2.46.31-2.35,1,.81,1.5,2.64,2.3,5.16,2.61-1.47,1.21-1,2.56.22,4,.07,3.43,0,6.75-.2,10a10.94,10.94,0,0,0-1.39-.39l-.53,2.49-.36-.37.26.47-.24.59a20.71,20.71,0,0,1,2.06.23l0,.29c-.68,0-1.48,0-2.3.09a14.88,14.88,0,0,1-1.23,2.11,29.42,29.42,0,0,1,3.38-.42v.09c-2.09.63-4.62,1.57-5.63,2.88-.33.42.22,1.65,1.67,2.49.41-.59,1.9-1.2,3.65-2.07,0,.38-.07.76-.11,1.14-.92,1-1.75,2.27-.38,3.51l-1,9.57a43.39,43.39,0,0,0-1.76,4.11,14.75,14.75,0,0,0-1-2.76c.93-1.38,1.36-2.94,1-3.64-.74-.38-8.76-4-5.83-4,2.46,0,3.86,1.64,6.13,2.16,1.46-2,.25-12.26-8.51-5.08a12.25,12.25,0,0,0-1.41-1.84,5.37,5.37,0,0,0,.89-1c.39-1.53.18-3.51-.5-6.65-.26-1.18.72-.68,1.25.87a50.26,50.26,0,0,0,2,4.8,15.1,15.1,0,0,0,2.48-1.49c-1.17-3-1.91-7-5.13-7.93-1.18-.36-1.45-1.16-.13-.84,3.57.84,5.08,4.8,6.76,7.48a13.39,13.39,0,0,0,3-4.62c-1.49-2.76-3.73-4.59-8.12-6.08-1.2-.4-1.42-1,0-.82,3.64.55,6.55,3,8.7,5.19a12.86,12.86,0,0,0,.32-2.86,13.56,13.56,0,0,0-.16-2,10.73,10.73,0,0,0-7.63-2.66c-1.5,0-1.46-1.21-.08-1.23A15.7,15.7,0,0,1,51.85,35C49.79,29,43.85,24.42,38,32c-7.14-6.67-12.89-2.44-13.87,3.77a12.87,12.87,0,0,1,2.5-1.22c.08.46.16.92.25,1.38a9.41,9.41,0,0,0-2.9,2.2c0,.38,0,.77.1,1.15a18.13,18.13,0,0,0,.9,3.86c.83-1,1.7-2,2.68-3.08.09.42.17.84.26,1.26a22.2,22.2,0,0,0-2.29,3.39,15.28,15.28,0,0,0,2.07,3.22c.4-.63.79-1.32,1.2-2,.19.88.4,1.76.6,2.63-.11.31-.22.6-.34.88.22.19.45.37.68.55q.66,2.77,1.37,5.43c-.59.85-.83,1.44-.59,1.22l.91-.06c.15.57.31,1.13.46,1.69a6.21,6.21,0,0,0-2.34.89c-1,1.74-.2,2.55.45,3.9a9.86,9.86,0,0,1,2.79-1.69l.37,1.26a8.51,8.51,0,0,0-3.2,2.93c0,.24-.08.48-.1.71C26.67,60.87,23.51,55.77,20.4,53c.33-.74.22-1.77-.69-3.45a3.53,3.53,0,0,1,1.56,3.08c1-1.15,4.36-8.36-1.87-5.77,1.13-7.51-9.1-5.35-9.79-3.67,2.89.35,3.55,1.69,4.34,3.12.14.25-5.42-2.48-6.67-2.8-2.8.83-3.46,2.11-3.85,3.8,4.56-.88,5.56-.2,8.2.49.68.18.81.67,0,.75-2.09.2-3.39-.55-6.25,1.22-1.58,1-1.6,3.1-1.93,4.55,5.4-1.64,2.7-1.91,5.71-3.16-1.59,3-4.17,3.5-5.76,5.41a4.75,4.75,0,0,0-.25,6.39c-.79-3.77,5.16-1.72,6.7-4.36,1.92-5.43,2.8-5.58,3.28-5.63,0,2.52-.61,3.36-1.78,4.17,4.9-.44,5.46-1.31,5.09-5.55,1.19.77,1.28,2.29.77,4.06.8-.73,1.79-1.17,2.49-1.76,3,2.7,6.13,7.8,9.43,13.14,1.21,1.95,2.43,3.93,3.68,5.84a4,4,0,0,0,1.34,2A61.23,61.23,0,0,0,38,80c-2.07.65-3.3,1.47-3.22,2.36l2.14,24.5c.18,2.1,5.71,3.82,12.75,3.82s12.5-1.73,12.75-3.82l2.88-24.5c.15-1.22-2.21-2.32-5.87-3A27.93,27.93,0,0,1,63.09,72c-.06,1.73.57,3.67,4.14,4.57,5.27-1.78,2.59-5.8-.5-8.09,2.18-.3,2.12,1.39,6.16,4.21.66-1.07,1.32-3.24-.09-4.18a13.93,13.93,0,0,0-5.11-2.27l.66-.72a21.61,21.61,0,0,1,5.35,1.51c.39-1.45.08-2.78-.82-3.33-.27,0-1.37-.1-2.61-.19.45-.47.9-.93,1.36-1.39.21-.09.48.11.43-.43l3.53-3.53c3,3.48,5.92,4.38,8.88,3.86.27-.82.48-1.58.66-2.29a9.26,9.26,0,0,1-3.82-2.42l-.11.76-3-2.64c.18-.19.36-.38.53-.58.38.35.84.74,1.39,1.23-.5-3.29,2.9-7,3.47-6.45.55.35-2.8,5.54-1.63,7.24a9.41,9.41,0,0,0,4.65,2.5c-1-1.78-.68-6.38.16-6.72.21.06.11,5,.68,5.79.45.66,3,2.65,2.75,2-1.08-2.4,0-3.2.14-3.15.81,1.45,2.6,7.38,4.89,5.89.26-.17-4.81-8.22-4.49-8.46.52-.4,5.53,7.7,5.66,7.58,1.06-1,1.87-2.31.7-3.5a61.9,61.9,0,0,0-8.21-7.38c1.94-1.09,4.5,3.23,8,6.65,0-1.77,2.54-4.91.56-5.86-5.13-2.45-7.14-2.7-9.38-3.61-.86-.36-.9-.84-.1-1,4.71-.87,5,2.3,8.9,3.36.7-3.42-5.35-7.27-9.91-5.06-.85.41-1.59.06-.82-.76a13.42,13.42,0,0,1,6.73-3.32c2.54-3.61-21.9-6-11.79,2.86-5.27,1-6.09.57-4.56,5.88,1-.52,4.54-3.54,5.93-3.68-1.69,1.28-5,5.16-4.77,6.86a2.55,2.55,0,0,0,.26.3l-.53.58a1.63,1.63,0,0,1-.5-.75c-.17-1.05.56-2.42,1.32-3.52A16.57,16.57,0,0,1,76,51.74c-.46-1.61-1.6-4.55-.53-6,.8-1.09,2.67-1.28,3.94-1.5-1.15-1.24-2.17-2.93-1.23-4.41-6.6,5.34-6.32,5.33-.1-2.45-4.19-1.63-6.62-1.37-7.68.39a22.43,22.43,0,0,1-4.31-5.43c.53-.11.68,0,1.21-.07,3.31,4.48,8.37,3.34,12,5,.68-2.21,1-4.76-2.51-6.52-2.87-1.44-6.76-1.14-10.55-.49C67.35,28.29,71.65,29,78.06,29c-1-1.63-2.2-4.59-4.37-4.54-5.6.15-7.23,2.42-9.6,2.63-.91.08-1.25-.42-.59-.87.92-.63,2.3-.64,3.35-1.06,1.77-.71,3.31-1.67,5.34-1.93a6.83,6.83,0,0,0-6.29-3.62c-1.7,1.21-3.51,1.81-4.34,3.95-.33.87-1.45.76-1.08-.32.7-2,3.14-3.07,4.44-4.79-.37-2.1-13.29-4.33-13.11,5.56ZM42,84.88,42,85l.11-.07a54.91,54.91,0,0,0,7.93.53,55.24,55.24,0,0,0,8.23-.57h.26v-.05c2.6-.42,4.53-1,5.39-1.72l-2.78,23.65c-.09.62-2.49,1.48-3,1.62a34.21,34.21,0,0,1-16.94,0c-.47-.14-2.94-1-3-1.62L36.16,83.07c.88.75,3,1.39,5.81,1.81ZM40.61,79.4q-1.09-2.49-2.19-5.3c3.07-1.88,3.16-5.69,2.21-8.43l.4.07A69.27,69.27,0,0,0,43.52,79c-1,.12-2,.27-2.91.45Zm4.06-.57a54.07,54.07,0,0,1-1.87-8.3,14.7,14.7,0,0,0,.61,1.9c1.55-1,4-3.36,3.31-4.87-1.7-3.91-2.84-3.19-3.73-4.8-1.14-2.1,4.6,2.16,5.76,4a1.59,1.59,0,0,0,.13-.13,16.65,16.65,0,0,1,1,3.88A56.93,56.93,0,0,0,48,78.62C46.87,78.66,45.74,78.73,44.67,78.83Zm4.52-.24q.44-2.67,1.07-5.1c.12,1.53.19,3.22.25,5.1Zm5,.13c.37-4.34.59-7.85,1.85-10,.33.22.66.42,1,.62.86-2.07,2.12-2.54,4.21-3.42-2,1.67-3.53,3.54-3.16,4.78a5.14,5.14,0,0,0,2.74,2.42c0-1,1.3-2.35,2.46-4.31.24.08.28.37.23.79a30.65,30.65,0,0,0-5.13,9.6c-1.28-.21-2.69-.36-4.18-.47Zm-2.5-.11h0c0-3.62.15-7.21.45-10.8-.36.9-.7,1.84-1,2.81A76.69,76.69,0,0,1,51.64,78.61Zm1.17,0H53c.39-4.67.6-8.31,2-10.65a2.85,2.85,0,0,1-1-1.79c.43-1.07,3.31-1.44,5.33-1.91a42.6,42.6,0,0,0-5.59-.12l-.21.41a129.52,129.52,0,0,0-.74,14.05Zm-13.58,1,.24-.06q-1-2.37-2.07-5a9,9,0,0,1-1.72.47A54.3,54.3,0,0,0,39.23,79.7ZM36.14,51.49a8.54,8.54,0,0,0-4,2.76c-.29-1.11-.57-2.24-.85-3.38a13.07,13.07,0,0,0,1.18.6,46.39,46.39,0,0,0,2.87-5c.71-1.55,2-2.05,1.68-.87C36.22,48.23,35.9,50.06,36.14,51.49Zm-5.91-5c-.15-.68-.31-1.37-.46-2.07,1.16-1.87,2.58-3.59,4.8-4.11,1.31-.31,1,.48-.13.84C32.1,41.87,31.07,44.17,30.23,46.51ZM28.9,40.28c-.08-.39-.16-.78-.23-1.17a10.6,10.6,0,0,1,4.18-2.49c1.34-.4,1.06.67-.13,1.11A10.87,10.87,0,0,0,28.9,40.28ZM28,35.48c-.08-.43-.15-.85-.23-1.28a17.15,17.15,0,0,1,4.59-.61c1.38,0,1.43,1.28-.07,1.24A12.34,12.34,0,0,0,28,35.48Zm30,7.89a16.81,16.81,0,0,0-2.22-1.31c.18-3.16.28-6.42.24-9.79a6.66,6.66,0,0,1,1.94-2.18c-.76,2-1.25,3.64-.13,5.09l6.31,3.51c-2.13-2.82-2.86-5.43-2.61-7.9.85,3.24,2,6,3.88,7a8.84,8.84,0,0,0,4.89.2,7.14,7.14,0,0,0-.42,3.81c-1.79-2.74-8.63-2.08-10.58,0C65.59,39,69.77,45.1,68.33,47c1.4,1.16.64,3.23-.54,4.24l-.46.4-1-.64a1.38,1.38,0,0,1,.2.6c.21,1.68-1.93,2.86-3.17,3.51,2.34,1.11,6,2.71,7.32,2.82-.58-2.27-.94-5.52.54-6.82a34.7,34.7,0,0,0,3.62,6.18l-3.35,3.36c-1.7-2.24-7-5.45-9.33-.07A12.33,12.33,0,0,0,57,58.92a27.53,27.53,0,0,1,5.64-5.63,11.35,11.35,0,0,0,.85.88c1.25-.64,3-2.09,2-3-2.73-2.43-3.65-2-5-3-1.69-1.3,5.11,1.35,6.76,2.52,1.12-1,1.33-2.42.64-3-.83-.24-9.72-2.51-6.82-2.49,2.43,0,4.24,1,6.62,1.35.91-1.22-3-7.63-9.75-3.17Zm-2.82,6.2a.25.25,0,0,1,0,.26Zm-.61,5.87c.3.15.64.31,1,.46a11.26,11.26,0,0,0,3-.48,31.64,31.64,0,0,0-3.07,3.73A3,3,0,0,0,54,60.25Zm6-1.94C60.78,52.36,60,51,59,50c1.89.15,1.84.88,3,2.45C61.5,52.75,61,53.11,60.58,53.5ZM47.37,47.88l.2.16-.37-.66ZM31.44,68.57a25.82,25.82,0,0,1,3.07-2.1l.39,1.18a9.77,9.77,0,0,0-2,3.23Zm1.29-12c2.52,0,6,.25,6.41,1a34.08,34.08,0,0,0-6,.47C33,57.52,32.87,57,32.73,56.52ZM34,61a29.39,29.39,0,0,1,3.76-.65A28.87,28.87,0,0,0,34.3,62Zm1.5,4.85c.44-.28.89-.59,1.36-.91.28.24-.29.87-1.08,1.75ZM70,62.23l-1.17,1.2C62.55,62.88,68.08,62.29,70,62.23Zm-3,3.2-.25.28C66.5,65.54,66.61,65.45,66.92,65.43ZM17.56,34.06c.72,1.25,2.08,2.17,5,2a1.59,1.59,0,0,0,.84,1.63,10.87,10.87,0,0,1,1.71-1.56l-1.94,1.19.27-1.68a10.07,10.07,0,0,1,3.37-6.29c-.14-1.52,1.18-4.75,1.92-4.59-1.26-1-4.15-1.61-4.84-.57-.26,1.51.61,4.13,1.29,5.68.27.62-.37,1.15-.74.39-.68-1.43-2.68-3.75-2.89-5.32-.52-.37-1.87,0-3,1.05-.18.15,3.93,4.87,3.77,5.05s-4.58-4.21-4.71-4C16.35,28.63,15.82,31.06,17.56,34.06Zm20.11-3.41,1.19-.76a10.13,10.13,0,0,1,2.26-1.73c-1.86-3-5.25-2.32-7.82,0A12.83,12.83,0,0,1,37.67,30.65Zm-5.78-2.76A24.14,24.14,0,0,1,35.63,25c-1.34-.36-3.43-1.36-4.54-.21-1.69,1.77-1.94,2.68-2.09,3.42A6.88,6.88,0,0,1,31.89,27.89Z"/></svg>